# xmcd
#
# Track frame offsets:
#	150
#	15429
#	28504
#	41729
#	55172
#	68954
#	81887
#	95199
#	107711
#	120614
#	133204
#	145002
#	157999
#	172517
#	186432
#	200796
#	214387
#	228807
#	243702
#	258835
#	273007
#	287302
#	301599
#	316262
#
# Disc length: 4407 seconds
#
# Revision: 1
# Processed by: cddbd v1.5.2PL0 Copyright (c) Steve Scherf et al.
# Submitted via: audiograbber 1.83.01
#
DISCID=4a113518
DTITLE=Milestones of a Legend - CD 9 - Mississippi John Hurt und Blind Willie J
DTITLE=ohnson
DYEAR=1900
DGENRE=Blues
TTITLE0=Mississippi John Hurt - Frankie
TTITLE1=Mississippi John Hurt - Nobody's Dirty Business
TTITLE2=Mississippi John Hurt - Ain't No Tellin'
TTITLE3=Mississippi John Hurt - Louis Collins
TTITLE4=Mississippi John Hurt - Avalon Blues
TTITLE5=Mississippi John Hurt - Big Leg Blues
TTITLE6=Mississippi John Hurt - Stack O'Lee
TTITLE7=Mississippi John Hurt - Candy Man Blues
TTITLE8=Mississippi John Hurt - Got the Blues (Can't Be Satisfied)
TTITLE9=Mississippi John Hurt - Blessed Be the Name
TTITLE10=Mississippi John Hurt - Praying on the Camp Ground
TTITLE11=Mississippi John Hurt - Blue Harvest Blues
TTITLE12=Mississippi John Hurt - Spike Driver Blues
TTITLE13=Blind Willie Johnson - Keep Your Lamp Trimmed and Burning
TTITLE14=Blind Willie Johnson - You're Gonna Need Somebody on Your Bond
TTITLE15=Blind Willie Johnson - God Moves on the Water
TTITLE16=Blind Willie Johnson - Jesus Is Coming Soon
TTITLE17=Blind Willie Johnson - John the Revelator
TTITLE18=Blind Willie Johnson - Dark Was the Night - Cold Was the Ground
TTITLE19=Blind Willie Johnson - Trouble Will Soon Be Over
TTITLE20=Blind Willie Johnson - Let Your Light Shine on Me
TTITLE21=Blind Willie Johnson - It's Nobody's Fault but Mine
TTITLE22=Blind Willie Johnson - The Soul of a Man
TTITLE23=Blind Willie Johnson - If I Had My Way I'd Tear the Building Down
EXTD=
EXTT0=
EXTT1=
EXTT2=
EXTT3=
EXTT4=
EXTT5=
EXTT6=
EXTT7=
EXTT8=
EXTT9=
EXTT10=
EXTT11=
EXTT12=
EXTT13=
EXTT14=
EXTT15=
EXTT16=
EXTT17=
EXTT18=
EXTT19=
EXTT20=
EXTT21=
EXTT22=
EXTT23=
PLAYORDER=
